<mxfile host="app.diagrams.net" modified="2023-04-11T10:07:49.692Z" agent="Mozilla/5.0 (Windows NT 10.0; Win64; x64) AppleWebKit/537.36 (KHTML, like Gecko) Chrome/111.0.0.0 Safari/537.36" etag="xB31pPFyVnXOLw9tBlU3" version="21.1.5" type="github">
  <diagram name="第 1 页" id="rUZTMIfKfon_q2ztTTua">
    <mxGraphModel dx="1434" dy="1965" grid="1" gridSize="10" guides="1" tooltips="1" connect="1" arrows="1" fold="1" page="1" pageScale="1" pageWidth="827" pageHeight="1169" math="0" shadow="0">
      <root>
        <mxCell id="0" />
        <mxCell id="1" parent="0" />
        <mxCell id="RApABBrmYkKpnpSUkDdv-8" value="" style="rounded=1;whiteSpace=wrap;html=1;fillColor=none;dashed=1;dashPattern=1 1;strokeWidth=2;" parent="1" vertex="1">
          <mxGeometry x="190" y="-70" width="1010" height="320" as="geometry" />
        </mxCell>
        <mxCell id="rJ2-EKXZz047EzGhhzqk-3" value="" style="rounded=1;whiteSpace=wrap;html=1;fillColor=none;dashed=1;strokeWidth=3;strokeColor=#66B2FF;" parent="1" vertex="1">
          <mxGeometry x="200" y="260" width="1000" height="240" as="geometry" />
        </mxCell>
        <mxCell id="rJ2-EKXZz047EzGhhzqk-2" value="Network Inbound" style="rounded=0;whiteSpace=wrap;html=1;direction=south;fillColor=#66B2FF;" parent="1" vertex="1">
          <mxGeometry x="120" y="260" width="60" height="240" as="geometry" />
        </mxCell>
        <mxCell id="rJ2-EKXZz047EzGhhzqk-5" value="" style="rounded=0;whiteSpace=wrap;html=1;fillColor=#FFB570;strokeColor=#66B2FF;strokeWidth=2;" parent="1" vertex="1">
          <mxGeometry x="220" y="280" width="120" height="170" as="geometry" />
        </mxCell>
        <mxCell id="rJ2-EKXZz047EzGhhzqk-6" value="&lt;font style=&quot;font-size: 20px;&quot;&gt;Protocols&lt;/font&gt;" style="text;strokeColor=none;fillColor=none;html=1;fontSize=24;fontStyle=1;verticalAlign=middle;align=center;" parent="1" vertex="1">
          <mxGeometry x="230" y="280" width="100" height="50" as="geometry" />
        </mxCell>
        <mxCell id="rJ2-EKXZz047EzGhhzqk-7" value="&lt;font style=&quot;font-size: 15px;&quot;&gt;Http&lt;br&gt;Server&lt;/font&gt;" style="rounded=1;whiteSpace=wrap;html=1;strokeColor=#66B2FF;fontSize=20;fillColor=none;dashed=1;strokeWidth=1.5;" parent="1" vertex="1">
          <mxGeometry x="238" y="330" width="90" height="50" as="geometry" />
        </mxCell>
        <mxCell id="rJ2-EKXZz047EzGhhzqk-8" value="&lt;font style=&quot;font-size: 15px;&quot;&gt;Highway&lt;br&gt;Sever&lt;/font&gt;" style="rounded=1;whiteSpace=wrap;html=1;strokeColor=#66B2FF;fontSize=20;fillColor=none;dashed=1;strokeWidth=1.5;" parent="1" vertex="1">
          <mxGeometry x="238" y="390" width="90" height="50" as="geometry" />
        </mxCell>
        <mxCell id="rJ2-EKXZz047EzGhhzqk-9" value="&lt;font color=&quot;#ffffff&quot;&gt;Handler Chain&lt;/font&gt;" style="rounded=0;whiteSpace=wrap;html=1;strokeColor=#66B2FF;strokeWidth=1.5;fontSize=15;fillColor=#66B2FF;" parent="1" vertex="1">
          <mxGeometry x="390" y="277.5" width="620" height="55" as="geometry" />
        </mxCell>
        <mxCell id="rJ2-EKXZz047EzGhhzqk-11" value="Circuit Breaker" style="rounded=1;whiteSpace=wrap;html=1;strokeColor=#66B2FF;strokeWidth=1.5;fontSize=15;fontColor=#000000;fillColor=none;" parent="1" vertex="1">
          <mxGeometry x="390" y="350" width="120" height="60" as="geometry" />
        </mxCell>
        <mxCell id="rJ2-EKXZz047EzGhhzqk-14" value="" style="endArrow=classic;html=1;rounded=0;fontSize=15;fontColor=#000000;" parent="1" edge="1">
          <mxGeometry relative="1" as="geometry">
            <mxPoint x="340" y="380" as="sourcePoint" />
            <mxPoint x="390" y="380" as="targetPoint" />
            <Array as="points">
              <mxPoint x="370" y="380" />
            </Array>
          </mxGeometry>
        </mxCell>
        <mxCell id="rJ2-EKXZz047EzGhhzqk-16" value="Rate Limiting" style="rounded=1;whiteSpace=wrap;html=1;strokeColor=#66B2FF;strokeWidth=1.5;fontSize=15;fontColor=#000000;fillColor=none;" parent="1" vertex="1">
          <mxGeometry x="520" y="350" width="120" height="60" as="geometry" />
        </mxCell>
        <mxCell id="rJ2-EKXZz047EzGhhzqk-17" value="Load Balancing" style="rounded=1;whiteSpace=wrap;html=1;strokeColor=#66B2FF;strokeWidth=1.5;fontSize=15;fontColor=#000000;fillColor=none;" parent="1" vertex="1">
          <mxGeometry x="650" y="350" width="120" height="60" as="geometry" />
        </mxCell>
        <mxCell id="rJ2-EKXZz047EzGhhzqk-36" style="edgeStyle=none;rounded=0;orthogonalLoop=1;jettySize=auto;html=1;entryX=0.5;entryY=0;entryDx=0;entryDy=0;fontSize=15;fontColor=#000000;" parent="1" source="rJ2-EKXZz047EzGhhzqk-18" target="rJ2-EKXZz047EzGhhzqk-35" edge="1">
          <mxGeometry relative="1" as="geometry" />
        </mxCell>
        <mxCell id="rJ2-EKXZz047EzGhhzqk-18" value="Tracing" style="rounded=1;whiteSpace=wrap;html=1;strokeColor=#66B2FF;strokeWidth=1.5;fontSize=15;fontColor=#000000;fillColor=none;" parent="1" vertex="1">
          <mxGeometry x="786" y="350" width="84" height="60" as="geometry" />
        </mxCell>
        <mxCell id="rJ2-EKXZz047EzGhhzqk-19" value="Transport" style="rounded=1;whiteSpace=wrap;html=1;strokeColor=#66B2FF;strokeWidth=1.5;fontSize=15;fontColor=#000000;fillColor=none;" parent="1" vertex="1">
          <mxGeometry x="890" y="350" width="120" height="60" as="geometry" />
        </mxCell>
        <mxCell id="rJ2-EKXZz047EzGhhzqk-20" value="" style="endArrow=classic;html=1;rounded=0;fontSize=15;fontColor=#000000;" parent="1" edge="1">
          <mxGeometry relative="1" as="geometry">
            <mxPoint x="1010" y="380" as="sourcePoint" />
            <mxPoint x="1050" y="380" as="targetPoint" />
          </mxGeometry>
        </mxCell>
        <mxCell id="rJ2-EKXZz047EzGhhzqk-21" value="" style="edgeLabel;resizable=0;html=1;align=center;verticalAlign=middle;strokeColor=#66B2FF;strokeWidth=1.5;fontSize=15;fontColor=#000000;fillColor=none;" parent="rJ2-EKXZz047EzGhhzqk-20" connectable="0" vertex="1">
          <mxGeometry relative="1" as="geometry" />
        </mxCell>
        <mxCell id="rJ2-EKXZz047EzGhhzqk-22" value="" style="rounded=0;whiteSpace=wrap;html=1;fillColor=#FFB570;strokeColor=#66B2FF;strokeWidth=2;" parent="1" vertex="1">
          <mxGeometry x="1050" y="280" width="120" height="170" as="geometry" />
        </mxCell>
        <mxCell id="rJ2-EKXZz047EzGhhzqk-23" value="&lt;font style=&quot;font-size: 20px;&quot;&gt;Protocols&lt;/font&gt;" style="text;strokeColor=none;fillColor=none;html=1;fontSize=24;fontStyle=1;verticalAlign=middle;align=center;" parent="1" vertex="1">
          <mxGeometry x="1060" y="280" width="100" height="50" as="geometry" />
        </mxCell>
        <mxCell id="rJ2-EKXZz047EzGhhzqk-24" value="&lt;font style=&quot;font-size: 15px;&quot;&gt;Http&lt;br&gt;Server&lt;/font&gt;" style="rounded=1;whiteSpace=wrap;html=1;strokeColor=#66B2FF;fontSize=20;fillColor=none;dashed=1;strokeWidth=1.5;" parent="1" vertex="1">
          <mxGeometry x="1068" y="330" width="90" height="50" as="geometry" />
        </mxCell>
        <mxCell id="rJ2-EKXZz047EzGhhzqk-25" value="&lt;font style=&quot;font-size: 15px;&quot;&gt;Highway&lt;br&gt;Sever&lt;/font&gt;" style="rounded=1;whiteSpace=wrap;html=1;strokeColor=#66B2FF;fontSize=20;fillColor=none;dashed=1;strokeWidth=1.5;" parent="1" vertex="1">
          <mxGeometry x="1068" y="390" width="90" height="50" as="geometry" />
        </mxCell>
        <mxCell id="rJ2-EKXZz047EzGhhzqk-31" style="edgeStyle=none;rounded=0;orthogonalLoop=1;jettySize=auto;html=1;entryX=0.5;entryY=0;entryDx=0;entryDy=0;fontSize=15;fontColor=#000000;exitX=0.5;exitY=1;exitDx=0;exitDy=0;" parent="1" source="rJ2-EKXZz047EzGhhzqk-26" target="rJ2-EKXZz047EzGhhzqk-29" edge="1">
          <mxGeometry relative="1" as="geometry" />
        </mxCell>
        <mxCell id="rJ2-EKXZz047EzGhhzqk-32" style="edgeStyle=none;rounded=0;orthogonalLoop=1;jettySize=auto;html=1;fontSize=15;fontColor=#000000;exitX=0.5;exitY=1;exitDx=0;exitDy=0;entryX=0.5;entryY=0;entryDx=0;entryDy=0;" parent="1" source="rJ2-EKXZz047EzGhhzqk-26" target="rJ2-EKXZz047EzGhhzqk-30" edge="1">
          <mxGeometry relative="1" as="geometry" />
        </mxCell>
        <mxCell id="rJ2-EKXZz047EzGhhzqk-26" value="Nacos" style="rounded=1;whiteSpace=wrap;html=1;strokeColor=#FFFF00;strokeWidth=1.5;fontSize=15;fontColor=#000000;fillColor=#FFB570;" parent="1" vertex="1">
          <mxGeometry x="390" y="430" width="260" height="50" as="geometry" />
        </mxCell>
        <mxCell id="rJ2-EKXZz047EzGhhzqk-34" style="edgeStyle=none;rounded=0;orthogonalLoop=1;jettySize=auto;html=1;exitX=0.5;exitY=1;exitDx=0;exitDy=0;entryX=0.5;entryY=0;entryDx=0;entryDy=0;fontSize=15;fontColor=#000000;" parent="1" source="rJ2-EKXZz047EzGhhzqk-27" target="rJ2-EKXZz047EzGhhzqk-33" edge="1">
          <mxGeometry relative="1" as="geometry" />
        </mxCell>
        <mxCell id="rJ2-EKXZz047EzGhhzqk-27" value="Metrics" style="rounded=1;whiteSpace=wrap;html=1;strokeColor=#FFFF00;strokeWidth=1.5;fontSize=15;fontColor=#000000;fillColor=#FFB570;" parent="1" vertex="1">
          <mxGeometry x="703" y="430" width="90" height="50" as="geometry" />
        </mxCell>
        <mxCell id="rJ2-EKXZz047EzGhhzqk-28" value="Logger" style="rounded=1;whiteSpace=wrap;html=1;strokeColor=#FFFF00;strokeWidth=1.5;fontSize=15;fontColor=#000000;fillColor=#FFB570;" parent="1" vertex="1">
          <mxGeometry x="910" y="430" width="90" height="50" as="geometry" />
        </mxCell>
        <mxCell id="rJ2-EKXZz047EzGhhzqk-29" value="Config Source" style="rounded=1;whiteSpace=wrap;html=1;strokeColor=#FFFF00;strokeWidth=1.5;fontSize=15;fontColor=#000000;fillColor=#66B2FF;" parent="1" vertex="1">
          <mxGeometry x="350" y="525" width="152" height="55" as="geometry" />
        </mxCell>
        <mxCell id="rJ2-EKXZz047EzGhhzqk-30" value="Server&lt;br&gt;Center" style="rounded=1;whiteSpace=wrap;html=1;strokeColor=#FFFF00;strokeWidth=1.5;fontSize=15;fontColor=#000000;fillColor=#66B2FF;" parent="1" vertex="1">
          <mxGeometry x="530" y="525" width="130" height="55" as="geometry" />
        </mxCell>
        <mxCell id="rJ2-EKXZz047EzGhhzqk-33" value="Prometheus" style="rounded=1;whiteSpace=wrap;html=1;strokeColor=#FFFF00;strokeWidth=1.5;fontSize=15;fontColor=#000000;fillColor=#66B2FF;" parent="1" vertex="1">
          <mxGeometry x="692" y="525" width="113" height="55" as="geometry" />
        </mxCell>
        <mxCell id="rJ2-EKXZz047EzGhhzqk-35" value="Zipkin" style="rounded=1;whiteSpace=wrap;html=1;strokeColor=#FFFF00;strokeWidth=1.5;fontSize=15;fontColor=#000000;fillColor=#66B2FF;" parent="1" vertex="1">
          <mxGeometry x="827" y="525" width="93" height="55" as="geometry" />
        </mxCell>
        <mxCell id="rJ2-EKXZz047EzGhhzqk-37" value="Writer" style="rounded=1;whiteSpace=wrap;html=1;strokeColor=#FFFF00;strokeWidth=1.5;fontSize=15;fontColor=#000000;fillColor=#66B2FF;" parent="1" vertex="1">
          <mxGeometry x="957" y="510" width="93" height="40" as="geometry" />
        </mxCell>
        <mxCell id="rJ2-EKXZz047EzGhhzqk-38" value="File" style="rounded=1;whiteSpace=wrap;html=1;strokeColor=#66B2FF;strokeWidth=1.5;fontSize=15;fontColor=#000000;fillColor=none;" parent="1" vertex="1">
          <mxGeometry x="930" y="568" width="70" height="35" as="geometry" />
        </mxCell>
        <mxCell id="rJ2-EKXZz047EzGhhzqk-39" value="Stdout" style="rounded=1;whiteSpace=wrap;html=1;strokeColor=#66B2FF;strokeWidth=1.5;fontSize=15;fontColor=#000000;fillColor=none;" parent="1" vertex="1">
          <mxGeometry x="1010" y="567" width="70" height="35" as="geometry" />
        </mxCell>
        <mxCell id="rJ2-EKXZz047EzGhhzqk-40" value="Network Outbound" style="rounded=0;whiteSpace=wrap;html=1;direction=south;fillColor=#66B2FF;" parent="1" vertex="1">
          <mxGeometry x="1241" y="260" width="60" height="240" as="geometry" />
        </mxCell>
        <mxCell id="RApABBrmYkKpnpSUkDdv-1" value="Controller" style="rounded=1;whiteSpace=wrap;html=1;fillColor=none;" parent="1" vertex="1">
          <mxGeometry x="220" y="-50" width="960" height="50" as="geometry" />
        </mxCell>
        <mxCell id="RApABBrmYkKpnpSUkDdv-2" value="K8s Client Pool" style="whiteSpace=wrap;html=1;fillColor=none;rounded=1;" parent="1" vertex="1">
          <mxGeometry x="220" y="10" width="960" height="50" as="geometry" />
        </mxCell>
        <mxCell id="RApABBrmYkKpnpSUkDdv-3" value="Security Service" style="whiteSpace=wrap;html=1;fillColor=none;rounded=1;" parent="1" vertex="1">
          <mxGeometry x="226" y="120" width="400" height="50" as="geometry" />
        </mxCell>
        <mxCell id="RApABBrmYkKpnpSUkDdv-4" value="Virtual&amp;nbsp;Service" style="whiteSpace=wrap;html=1;fillColor=none;rounded=1;" parent="1" vertex="1">
          <mxGeometry x="760" y="120" width="410" height="50" as="geometry" />
        </mxCell>
        <mxCell id="RApABBrmYkKpnpSUkDdv-6" value="DB" style="shape=cylinder3;whiteSpace=wrap;html=1;boundedLbl=1;backgroundOutline=1;size=15;fillColor=#FFB570;" parent="1" vertex="1">
          <mxGeometry x="675" y="70" width="50" height="60" as="geometry" />
        </mxCell>
        <mxCell id="RApABBrmYkKpnpSUkDdv-7" value="K8S" style="rounded=1;whiteSpace=wrap;html=1;fillColor=#66B2FF;" parent="1" vertex="1">
          <mxGeometry x="220" y="190" width="950" height="50" as="geometry" />
        </mxCell>
        <mxCell id="RApABBrmYkKpnpSUkDdv-9" value="Wire" style="rounded=0;whiteSpace=wrap;html=1;direction=south;fillColor=#66B2FF;" parent="1" vertex="1">
          <mxGeometry x="120" y="-60" width="60" height="300" as="geometry" />
        </mxCell>
      </root>
    </mxGraphModel>
  </diagram>
</mxfile>
